<mxfile host="65bd71144e">
    <diagram id="lcaI5hloPfirL9yJnCFp" name="Page-1">
        <mxGraphModel dx="1734" dy="1036" grid="1" gridSize="10" guides="1" tooltips="1" connect="1" arrows="1" fold="1" page="1" pageScale="1" pageWidth="850" pageHeight="1100" math="1" shadow="0">
            <root>
                <mxCell id="0"/>
                <mxCell id="1" parent="0"/>
                <mxCell id="2" value="" style="ellipse;whiteSpace=wrap;html=1;aspect=fixed;fillColor=#FFCC99;" vertex="1" parent="1">
                    <mxGeometry width="400" height="400" as="geometry"/>
                </mxCell>
                <mxCell id="3" value="" style="ellipse;whiteSpace=wrap;html=1;aspect=fixed;fillColor=#FF33FF;" vertex="1" parent="1">
                    <mxGeometry x="60" y="10" width="330" height="330" as="geometry"/>
                </mxCell>
                <mxCell id="4" value="" style="ellipse;whiteSpace=wrap;html=1;aspect=fixed;fillColor=#FFFF66;" vertex="1" parent="1">
                    <mxGeometry x="120" y="20" width="260" height="260" as="geometry"/>
                </mxCell>
                <mxCell id="5" value="" style="ellipse;whiteSpace=wrap;html=1;aspect=fixed;fillColor=#99CCFF;" vertex="1" parent="1">
                    <mxGeometry x="210" y="30" width="150" height="150" as="geometry"/>
                </mxCell>
                <mxCell id="7" value="\(\mathbb{N}\)" style="text;html=1;align=center;verticalAlign=middle;whiteSpace=wrap;rounded=0;fontSize=25;" vertex="1" parent="1">
                    <mxGeometry x="255" y="90" width="60" height="30" as="geometry"/>
                </mxCell>
                <mxCell id="8" value="\(\mathbb{Z}\)" style="text;html=1;align=center;verticalAlign=middle;whiteSpace=wrap;rounded=0;fontSize=25;" vertex="1" parent="1">
                    <mxGeometry x="170" y="185" width="60" height="30" as="geometry"/>
                </mxCell>
                <mxCell id="9" value="\(\mathbb{Q}\)" style="text;html=1;align=center;verticalAlign=middle;whiteSpace=wrap;rounded=0;fontSize=25;fontColor=#000000;" vertex="1" parent="1">
                    <mxGeometry x="100" y="250" width="60" height="30" as="geometry"/>
                </mxCell>
                <mxCell id="10" value="\(\mathbb{R}\)" style="text;html=1;align=center;verticalAlign=middle;whiteSpace=wrap;rounded=0;fontSize=25;fontColor=#000000;" vertex="1" parent="1">
                    <mxGeometry x="50" y="300" width="60" height="30" as="geometry"/>
                </mxCell>
                <mxCell id="16" value="\(e\)" style="text;html=1;align=center;verticalAlign=middle;whiteSpace=wrap;rounded=0;fontSize=25;fontColor=#000000;" vertex="1" parent="1">
                    <mxGeometry x="130" y="350" width="60" height="30" as="geometry"/>
                </mxCell>
                <mxCell id="17" value="\(\pi\)" style="text;html=1;align=center;verticalAlign=middle;whiteSpace=wrap;rounded=0;fontSize=25;fontColor=#000000;" vertex="1" parent="1">
                    <mxGeometry x="80" y="330" width="60" height="30" as="geometry"/>
                </mxCell>
                <mxCell id="18" value="\(\sqrt{2}\)" style="text;html=1;align=center;verticalAlign=middle;whiteSpace=wrap;rounded=0;fontSize=25;fontColor=#000000;" vertex="1" parent="1">
                    <mxGeometry x="20" y="250" width="60" height="30" as="geometry"/>
                </mxCell>
                <mxCell id="19" value="\(\frac{1}{2}\)" style="text;html=1;align=center;verticalAlign=middle;whiteSpace=wrap;rounded=0;fontSize=25;fontColor=#000000;" vertex="1" parent="1">
                    <mxGeometry x="220" y="290" width="60" height="30" as="geometry"/>
                </mxCell>
                <mxCell id="20" value="\(\frac{1}{4}\)" style="text;html=1;align=center;verticalAlign=middle;whiteSpace=wrap;rounded=0;fontSize=25;fontColor=#000000;" vertex="1" parent="1">
                    <mxGeometry x="150" y="290" width="60" height="30" as="geometry"/>
                </mxCell>
                <mxCell id="21" value="\(-\frac{2}{3}\)" style="text;html=1;align=center;verticalAlign=middle;whiteSpace=wrap;rounded=0;fontSize=25;fontColor=#000000;" vertex="1" parent="1">
                    <mxGeometry x="70" y="185" width="60" height="30" as="geometry"/>
                </mxCell>
                <mxCell id="22" value="-3" style="text;html=1;align=center;verticalAlign=middle;whiteSpace=wrap;rounded=0;fontSize=25;fontColor=#B3B3B3;" vertex="1" parent="1">
                    <mxGeometry x="280" y="200" width="60" height="30" as="geometry"/>
                </mxCell>
                <mxCell id="23" value="-2" style="text;html=1;align=center;verticalAlign=middle;whiteSpace=wrap;rounded=0;fontSize=25;fontColor=#B3B3B3;" vertex="1" parent="1">
                    <mxGeometry x="210" y="230" width="60" height="30" as="geometry"/>
                </mxCell>
                <mxCell id="24" value="-1" style="text;html=1;align=center;verticalAlign=middle;whiteSpace=wrap;rounded=0;fontSize=25;fontColor=#B3B3B3;" vertex="1" parent="1">
                    <mxGeometry x="130" y="135" width="60" height="30" as="geometry"/>
                </mxCell>
                <mxCell id="25" value="0" style="text;html=1;align=center;verticalAlign=middle;whiteSpace=wrap;rounded=0;fontSize=25;fontColor=#B3B3B3;" vertex="1" parent="1">
                    <mxGeometry x="150" y="60" width="60" height="30" as="geometry"/>
                </mxCell>
                <mxCell id="26" value="4" style="text;html=1;align=center;verticalAlign=middle;whiteSpace=wrap;rounded=0;fontSize=25;fontColor=#666666;" vertex="1" parent="1">
                    <mxGeometry x="220" y="110" width="60" height="30" as="geometry"/>
                </mxCell>
                <mxCell id="27" value="3" style="text;html=1;align=center;verticalAlign=middle;whiteSpace=wrap;rounded=0;fontSize=25;fontColor=#666666;" vertex="1" parent="1">
                    <mxGeometry x="270" y="130" width="60" height="30" as="geometry"/>
                </mxCell>
                <mxCell id="28" value="2" style="text;html=1;align=center;verticalAlign=middle;whiteSpace=wrap;rounded=0;fontSize=25;fontColor=#666666;" vertex="1" parent="1">
                    <mxGeometry x="300" y="70" width="60" height="30" as="geometry"/>
                </mxCell>
                <mxCell id="29" value="1" style="text;html=1;align=center;verticalAlign=middle;whiteSpace=wrap;rounded=0;fontSize=25;fontColor=#666666;" vertex="1" parent="1">
                    <mxGeometry x="240" y="60" width="60" height="30" as="geometry"/>
                </mxCell>
            </root>
        </mxGraphModel>
    </diagram>
</mxfile>